<svg xmlns="http://www.w3.org/2000/svg" xmlns:xlink="http://www.w3.org/1999/xlink" id="Layer_1" width="47.125" height="39.35" x="0" y="0" enable-background="new 0 0 47.125 39.35" version="1.1" viewBox="0 0 47.125 39.35" xml:space="preserve"><switch><g><g id="New_Symbol_3"><g><g><path fill="#FFF" d="M17.409,28.368c-1.833,1.83-4.07,2.854-7.04,2.854c-2.97,0-5.243-1.024-7.077-2.854 c-2.64-2.635-2.566-5.891-2.566-10.392c0-4.5-0.074-7.757,2.566-10.392c1.833-1.83,4.107-2.854,7.077-2.854 c2.97,0,5.207,1.024,7.04,2.854c2.64,2.635,2.604,5.891,2.604,10.392C20.012,22.477,20.049,25.733,17.409,28.368z M13.632,10.658c-0.733-0.842-1.87-1.391-3.264-1.391c-1.393,0-2.566,0.549-3.3,1.391c-0.99,1.098-1.247,2.305-1.247,7.318 s0.256,6.221,1.247,7.318c0.733,0.842,1.907,1.391,3.3,1.391c1.394,0,2.53-0.549,3.264-1.391 c0.99-1.098,1.283-2.306,1.283-7.318S14.622,11.756,13.632,10.658z"/><path fill="#FFF" d="M40.401,31.003l-6.71-11.855l-3.374,4.025v7.83H25.22V4.95h5.097v11.343L39.521,4.95h6.196 l-8.653,10.355l9.276,15.697H40.401z"/></g><polygon fill="none" points="-1.884 .359 47.009 .359 47.009 38.99 -1.884 38.99" display="none"/></g></g></g></switch></svg>