<svg xmlns="http://www.w3.org/2000/svg" xmlns:xlink="http://www.w3.org/1999/xlink" width="40.001" height="48" x="0" y="0" enable-background="new 0 0 40.001 48" version="1.1" viewBox="0 0 40.001 48" xml:space="preserve"><symbol id="Trash" viewBox="-659.25 -783.875 1319 1567"><path fill="#FFF" d="M611.616,578.125H308.75v157.459c0,26.528-21.742,47.541-48.238,47.541h-521.056 c-26.528,0-47.706-21.013-47.706-47.541V578.125h-303.366c-26.528,0-47.634-21.133-47.634-47.661v-205.12 c0-26.527,21.105-48.219,47.634-48.219h42.366V-735.584c0-26.496,21.666-48.291,48.194-48.291H521.057 c26.496,0,47.693,21.795,47.693,48.291V277.125h42.866c26.496,0,48.134,21.691,48.134,48.219v205.12 C659.75,556.96,638.112,578.125,611.616,578.125z M-212.25,687.125h425v-109h-425V687.125z M-563.25,482.125h1127v-109h-1127 V482.125z M473.056-687.875H-473.25v965h165v-644.901c0-26.495,21.472-48,48-48s48,21.505,48,48v644.901h164v-644.901 c0-26.495,21.473-48,48-48c26.496,0,48,21.505,48,48v644.901h165v-644.901c0-26.495,21.504-48,48-48s48,21.505,48,48v644.901h164 v-965H473.056z"/></symbol><g id="New_Symbol_2"><use id="XMLID_1_" width="1319" height="1567" x="-659.25" y="-783.875" overflow="visible" transform="matrix(0.0303 0 0 -0.0306 19.9932 23.9883)" xlink:href="#Trash"/></g></svg>