<svg xmlns="http://www.w3.org/2000/svg" xmlns:xlink="http://www.w3.org/1999/xlink" id="Layer_1" width="40" height="48" x="0" y="0" enable-background="new 0 0 40 48" version="1.1" viewBox="0 0 40 48" xml:space="preserve"><symbol id="Trash" viewBox="-659.5 -783.5 1319 1567"><path fill="#EF9193" d="M611.367,578.5H308.5v157.459c0,26.527-21.742,47.541-48.237,47.541h-521.056 c-26.528,0-47.706-21.014-47.706-47.541V578.5h-303.366c-26.528,0-47.634-21.133-47.634-47.661v-205.12 c0-26.526,21.105-48.219,47.634-48.219h42.366V-735.209c0-26.496,21.666-48.291,48.193-48.291H520.806 c26.496,0,47.693,21.795,47.693,48.291V277.5h42.867c26.496,0,48.133,21.691,48.133,48.219v205.12 C659.5,557.335,637.863,578.5,611.367,578.5z M-212.5,687.5h425v-109h-425V687.5z M-563.5,482.5h1127v-109h-1127V482.5z M472.806-687.5H-473.5v965h165v-644.901c0-26.495,21.472-48,48-48s48,21.505,48,48V277.5h164v-644.901c0-26.495,21.473-48,48-48 c26.496,0,48,21.505,48,48V277.5h165v-644.901c0-26.495,21.504-48,48-48s48,21.505,48,48V277.5h164v-965H472.806z"/></symbol><g id="New_Symbol_2"><use id="XMLID_1_" width="1319" height="1567" x="-659.5" y="-783.5" overflow="visible" transform="matrix(0.0303 0 0 -0.0306 20.001 24)" xlink:href="#Trash"/></g></svg>